inDegrees=yes
name=ik_Shooting_orientations
DataType=double
version=3
OpenSimVersion=4.3-2021-08-27-4bc7ad9
endheader
time	pelvis_tilt	pelvis_list	pelvis_rotation	pelvis_tx	pelvis_ty	pelvis_tz	hip_flexion_r	hip_adduction_r	hip_rotation_r	knee_angle_r	knee_angle_r_beta	ankle_angle_r	subtalar_angle_r	mtp_angle_r	hip_flexion_l	hip_adduction_l	hip_rotation_l	knee_angle_l	knee_angle_l_beta	ankle_angle_l	subtalar_angle_l	mtp_angle_l	lumbar_extension	lumbar_bending	lumbar_rotation	arm_flex_r	arm_add_r	arm_rot_r	elbow_flex_r	pro_sup_r	wrist_flex_r	wrist_dev_r	arm_flex_l	arm_add_l	arm_rot_l	elbow_flex_l	pro_sup_l	wrist_flex_l	wrist_dev_l
9.58999999999984	30.97358299173762	-25.90246143928727	16.64409753601376	0	0.9399999999999999	0	44.73953860630068	-9.971815759471825	0	59.8301288511508	1.044232740345034	-4.990879065506429	0	0	44.73953860630068	-9.971815759471825	0	59.8301288511508	1.044232740345034	-4.990879065506429	0	0	0	0	0	0	-13.51514558342391	0	75.38236911792484	44.92366832009512	0	0	0	-13.51514558342391	0	75.38236911792484	44.92366832009512	0	0
9.59999999999984	51.06844105050771	-28.03425251247727	71.01753313939911	0	0.9399999999999999	0	44.73969489188306	-9.971874417960224	0	59.83020908292646	1.044234140653684	-4.990903764044639	0	0	44.73969489188306	-9.971874417960224	0	59.83020908292646	1.044234140653684	-4.990903764044639	0	0	0	0	0	0	-13.51560254767629	0	75.38213978716149	44.92379422757195	0	0	0	-13.51560254767629	0	75.38213978716149	44.92379422757195	0	0
9.60999999999984	51.24487202009996	-28.11824637585393	72.17507285982445	0	0.9399999999999999	0	44.73970635208019	-9.971878627400198	0	59.83021508398864	1.044234245391978	-4.990905530498197	0	0	44.73970635208019	-9.971878627400198	0	59.83021508398864	1.044234245391978	-4.990905530498197	0	0	0	0	0	0	-13.51563653383982	0	75.38212297067416	44.92380329340226	0	0	0	-13.51563653383982	0	75.38212297067416	44.92380329340226	0	0
9.619999999999839	50.29004933985077	-28.6705472225875	51.75728857973058	0	0.9399999999999999	0	44.73975430957956	-9.971896593689182	0	59.830239752953	1.044234675946629	-4.990913093583046	0	0	44.73975430957956	-9.971896593689182	0	59.830239752953	1.044234675946629	-4.990913093583046	0	0	0	0	0	0	-13.51577697020523	0	75.38205259867193	44.92384186656665	0	0	0	-13.51577697020523	0	75.38205259867193	44.92384186656665	0	0
9.629999999999839	56.61225913421027	-43.20655448787301	66.0187353213081	0	0.9399999999999999	0	44.73978684931848	-9.971908780241716	0	59.83025652847444	1.044234968734711	-4.990918226352012	0	0	44.73978684931848	-9.971908780241716	0	59.83025652847444	1.044234968734711	-4.990918226352012	0	0	0	0	0	0	-13.51587240387547	0	75.3820048504258	44.9238680236581	0	0	0	-13.51587240387547	0	75.3820048504258	44.9238680236581	0	0
9.639999999999839	51.66036322682844	-28.46975439820483	72.77822262216363	0	0.9399999999999999	0	44.73980184126808	-9.97191434096238	0	59.83026431641269	1.044235104659876	-4.990920564015725	0	0	44.73980184126808	-9.97191434096238	0	59.83026431641269	1.044235104659876	-4.990920564015725	0	0	0	0	0	0	-13.51591661405916	0	75.38198285150422	44.92387997963484	0	0	0	-13.51591661405916	0	75.38198285150422	44.92387997963484	0	0
9.649999999999839	50.53090743211953	-28.98627557143276	51.94111030923688	0	0.9399999999999999	0	44.73984990795196	-9.971932332410763	0	59.83028904301964	1.04423553622058	-4.990928134842546	0	0	44.73984990795196	-9.971932332410763	0	59.83028904301964	1.04423553622058	-4.990928134842546	0	0	0	0	0	0	-13.51605739345338	0	75.38191231928745	44.92391861677263	0	0	0	-13.51605739345338	0	75.38191231928745	44.92391861677263	0	0
9.659999999999838	31.3433865402117	-24.68128683392188	18.10020332700163	0	0.9399999999999999	0	44.73991808203226	-9.971957666201506	0	59.83032423686517	1.044236150469061	-4.990938773184636	0	0	44.73991808203226	-9.971957666201506	0	59.83032423686517	1.044236150469061	-4.990938773184636	0	0	0	0	0	0	-13.51625759953024	0	75.3818122818371	44.92397311147108	0	0	0	-13.51625759953024	0	75.3818122818371	44.92397311147108	0	0
9.669999999999838	61.42900900084166	-23.4597503766228	51.35604173580428	0	0.9399999999999999	0	44.73998887933698	-9.971983896538248	0	59.83036083642042	1.044236789251805	-4.990949778483154	0	0	44.73998887933698	-9.971983896538248	0	59.83036083642042	1.044236789251805	-4.990949778483154	0	0	0	0	0	0	-13.51646574016169	0	75.38170839511788	44.92402957313071	0	0	0	-13.51646574016169	0	75.38170839511788	44.92402957313071	0	0
9.679999999999838	50.72435641672176	-29.28722277268359	52.06286537631694	0	0.9399999999999999	0	44.74000632687576	-9.971990374605365	0	59.83036988020817	1.044236947095678	-4.990952501097424	0	0	44.74000632687576	-9.971990374605365	0	59.83036988020817	1.044236947095678	-4.990952501097424	0	0	0	0	0	0	-13.51651712479677	0	75.38168279290747	44.92404350211346	0	0	0	-13.51651712479677	0	75.38168279290747	44.92404350211346	0	0
9.689999999999838	50.82329669787743	-29.39369570240444	52.14844642077414	0	0.9399999999999999	0	44.74001839486629	-9.971994740890434	0	59.83037625638687	1.04423705838099	-4.9909543263554	0	0	44.74001839486629	-9.971994740890434	0	59.83037625638687	1.04423705838099	-4.9909543263554	0	0	0	0	0	0	-13.51655316047147	0	75.38166508455966	44.92405293533477	0	0	0	-13.51655316047147	0	75.38166508455966	44.92405293533477	0	0
9.699999999999838	58.8645899986805	-46.1325553090571	67.83375470966126	0	0.9399999999999999	0	44.74004956360205	-9.972006374567773	0	59.83039233960773	1.044237339086148	-4.99095922023617	0	0	44.74004956360205	-9.972006374567773	0	59.83039233960773	1.044237339086148	-4.99095922023617	0	0	0	0	0	0	-13.5166446634906	0	75.38161934810215	44.92407792787949	0	0	0	-13.5166446634906	0	75.38161934810215	44.92407792787949	0	0
9.709999999999837	52.3629476773488	-42.88111482025558	44.94119633765882	0	0.9399999999999999	0	44.74012236918284	-9.972033643469691	0	59.83042971641898	1.044237991434569	-4.990970690829228	0	0	44.74012236918284	-9.972033643469691	0	59.83042971641898	1.044237991434569	-4.990970690829228	0	0	0	0	0	0	-13.5168576578937	0	75.38151251445575	44.92413649609239	0	0	0	-13.5168576578937	0	75.38151251445575	44.92413649609239	0	0
9.719999999999837	52.67545665762499	-29.37979285304015	73.3798422221949	0	0.9399999999999999	0	44.74021938356205	-9.972069933224198	0	59.83047951011028	1.044238860498428	-4.990985946345228	0	0	44.74021938356205	-9.972069933224198	0	59.83047951011028	1.044238860498428	-4.990985946345228	0	0	0	0	0	0	-13.51714146810155	0	75.38137015723979	44.92421447279647	0	0	0	-13.51714146810155	0	75.38137015723979	44.92421447279647	0	0
9.729999999999837	52.71785817201272	-29.51454675764074	72.21593014365641	0	0.9399999999999999	0	44.7402309458968	-9.972074181940382	0	59.83048554313464	1.044238965794567	-4.990987727518594	0	0	44.7402309458968	-9.972074181940382	0	59.83048554313464	1.044238965794567	-4.990987727518594	0	0	0	0	0	0	-13.51717569228319	0	75.38135319087705	44.92422362738084	0	0	0	-13.51717569228319	0	75.38135319087705	44.92422362738084	0	0
9.739999999999837	52.64654896949006	-43.11122641379993	45.23126977153648	0	0.9399999999999999	0	44.74032290314286	-9.972108578493311	0	59.83053272870374	1.044239789338107	-4.991002185506632	0	0	44.74032290314286	-9.972108578493311	0	59.83053272870374	1.044239789338107	-4.991002185506632	0	0	0	0	0	0	-13.51744468806894	0	75.38121825441085	44.92429754016694	0	0	0	-13.51744468806894	0	75.38121825441085	44.92429754016694	0	0
9.749999999999837	51.3715098902756	-30.02268079388199	52.58667079012574	0	0.9399999999999999	0	44.74034272910839	-9.972115927971831	0	59.83054299536077	1.044239968525076	-4.991005271162849	0	0	44.74034272910839	-9.972115927971831	0	59.83054299536077	1.044239968525076	-4.991005271162849	0	0	0	0	0	0	-13.51750306190185	0	75.38118916213944	44.92431335300555	0	0	0	-13.51750306190185	0	75.38118916213944	44.92431335300555	0	0
9.759999999999836	51.49215894572187	-30.13421903540378	52.69936034741954	0	0.9399999999999999	0	44.74035536682399	-9.972120481944847	0	59.8305496788115	1.044240085173296	-4.99100717199418	0	0	44.74035536682399	-9.972120481944847	0	59.8305496788115	1.044240085173296	-4.99100717199418	0	0	0	0	0	0	-13.51754084055857	0	75.38117061778863	44.92432320236958	0	0	0	-13.51754084055857	0	75.38117061778863	44.92432320236958	0	0
9.769999999999836	51.56907128042498	-30.23557369915472	52.75260830635825	0	0.9399999999999999	0	44.74036797018177	-9.972125054381522	0	59.83055630984061	1.044240200906587	-4.991009083098372	0	0	44.74036797018177	-9.972125054381522	0	59.83055630984061	1.044240200906587	-4.991009083098372	0	0	0	0	0	0	-13.51757837743129	0	75.38115212385152	44.92433307960713	0	0	0	-13.51757837743129	0	75.38115212385152	44.92433307960713	0	0
9.779999999999836	67.22471673692293	-13.27031617715506	100.572819638828	0	0.9399999999999999	0	44.74046509507139	-9.972161104260843	0	59.83060631953273	1.044241073740373	-4.991024200810503	0	0	44.74046509507139	-9.972161104260843	0	59.83060631953273	1.044241073740373	-4.991024200810503	0	0	0	0	0	0	-13.51786326676237	0	75.3810096044909	44.92441068535638	0	0	0	-13.51786326676237	0	75.3810096044909	44.92441068535638	0	0
9.789999999999836	51.80070355141318	-30.45373908016498	52.9569820903619	0	0.9399999999999999	0	44.74058557280014	-9.972205916611239	0	59.83066824155163	1.044242154483482	-4.991042999756872	0	0	44.74058557280014	-9.972205916611239	0	59.83066824155163	1.044242154483482	-4.991042999756872	0	0	0	0	0	0	-13.51821624057186	0	75.38083281757743	44.92450712002048	0	0	0	-13.51821624057186	0	75.38083281757743	44.92450712002048	0	0
9.799999999999836	51.90139647245467	-30.56204615110922	53.04375166730488	0	0.9399999999999999	0	44.74059789312258	-9.972210353346377	0	59.83067474994279	1.044242268076337	-4.991044850432776	0	0	44.74059789312258	-9.972210353346377	0	59.83067474994279	1.044242268076337	-4.991044850432776	0	0	0	0	0	0	-13.51825305266661	0	75.38081473896351	44.92451671947069	0	0	0	-13.51825305266661	0	75.38081473896351	44.92451671947069	0	0
9.809999999999835	53.42467359684003	-41.94917613348264	47.15345922641369	0	0.9399999999999999	0	44.74062439750891	-9.972220199633005	0	59.83068842688178	1.044242506783954	-4.991048983666428	0	0	44.74062439750891	-9.972220199633005	0	59.83068842688178	1.044242506783954	-4.991048983666428	0	0	0	0	0	0	-13.51833092176912	0	75.38077584689339	44.92453790245867	0	0	0	-13.51833092176912	0	75.38077584689339	44.92453790245867	0	0
9.819999999999835	63.7794849123288	-22.91222299819588	73.50947612678668	0	0.9399999999999999	0	44.74070120633331	-9.972248639007066	0	59.83072800112139	1.044243197484734	-4.991060899009867	0	0	44.74070120633331	-9.972248639007066	0	59.83072800112139	1.044243197484734	-4.991060899009867	0	0	0	0	0	0	-13.51855639414052	0	75.38066313897565	44.92459916428971	0	0	0	-13.51855639414052	0	75.38066313897565	44.92459916428971	0	0
9.829999999999835	31.23409696631124	-25.35978100174711	17.70846557548926	0	0.9399999999999999	0	44.74083237452265	-9.972297208640665	0	59.83079550584854	1.044244375664483	-4.991081241695402	0	0	44.74083237452265	-9.972297208640665	0	59.83079550584854	1.044244375664483	-4.991081241695402	0	0	0	0	0	0	-13.518941182638	0	75.3804706650797	44.92470380642681	0	5.38806921148701e-36	0	-13.518941182638	0	75.3804706650797	44.92470380642681	0	5.38806921148701e-36
